<svg width="1131" height="399" viewBox="0 0 1131 399" fill="none" xmlns="http://www.w3.org/2000/svg">
<path d="M7.80114 12.1193C7.44318 12.1136 7.08523 12.0455 6.72727 11.9148C6.36932 11.7841 6.04261 11.5639 5.74716 11.2543C5.4517 10.9418 5.21449 10.5199 5.03551 9.98864C4.85653 9.45455 4.76705 8.78409 4.76705 7.97727C4.76705 7.20455 4.83949 6.51989 4.98438 5.9233C5.12926 5.32386 5.33949 4.8196 5.61506 4.41051C5.89063 3.99858 6.22301 3.68608 6.61222 3.47301C7.00426 3.25994 7.44602 3.15341 7.9375 3.15341C8.42614 3.15341 8.8608 3.25142 9.24148 3.44744C9.625 3.64062 9.9375 3.91051 10.179 4.2571C10.4205 4.60369 10.5767 5.00284 10.6477 5.45455H9.60795C9.51136 5.0625 9.32386 4.73722 9.04545 4.47869C8.76705 4.22017 8.39773 4.09091 7.9375 4.09091C7.26136 4.09091 6.72869 4.38494 6.33949 4.97301C5.95313 5.56108 5.75852 6.38636 5.75568 7.44886H5.82386C5.98295 7.20739 6.17188 7.00142 6.39062 6.83097C6.61222 6.65767 6.85653 6.52415 7.12358 6.4304C7.39063 6.33665 7.6733 6.28977 7.97159 6.28977C8.47159 6.28977 8.92898 6.41477 9.34375 6.66477C9.75852 6.91193 10.0909 7.25426 10.3409 7.69176C10.5909 8.12642 10.7159 8.625 10.7159 9.1875C10.7159 9.72727 10.5952 10.2216 10.3537 10.6705C10.1122 11.1165 9.77273 11.4716 9.33523 11.7358C8.90057 11.9972 8.3892 12.125 7.80114 12.1193ZM7.80114 11.1818C8.15909 11.1818 8.48011 11.0923 8.7642 10.9134C9.05114 10.7344 9.27699 10.4943 9.44176 10.1932C9.60938 9.89205 9.69318 9.55682 9.69318 9.1875C9.69318 8.8267 9.61222 8.49858 9.45028 8.20312C9.29119 7.90483 9.07102 7.66761 8.78977 7.49148C8.51136 7.31534 8.19318 7.22727 7.83523 7.22727C7.56534 7.22727 7.31392 7.28125 7.08097 7.3892C6.84801 7.49432 6.64347 7.6392 6.46733 7.82386C6.29403 8.00852 6.15767 8.22017 6.05824 8.45881C5.95881 8.6946 5.90909 8.94318 5.90909 9.20455C5.90909 9.55114 5.99006 9.875 6.15199 10.1761C6.31676 10.4773 6.54119 10.7202 6.82528 10.9048C7.11222 11.0895 7.4375 11.1818 7.80114 11.1818ZM12.7315 12.0682C12.5213 12.0682 12.3409 11.9929 12.1903 11.8423C12.0398 11.6918 11.9645 11.5114 11.9645 11.3011C11.9645 11.0909 12.0398 10.9105 12.1903 10.7599C12.3409 10.6094 12.5213 10.5341 12.7315 10.5341C12.9418 10.5341 13.1222 10.6094 13.2727 10.7599C13.4233 10.9105 13.4986 11.0909 13.4986 11.3011C13.4986 11.4403 13.4631 11.5682 13.392 11.6847C13.3239 11.8011 13.2315 11.8949 13.1151 11.9659C13.0014 12.0341 12.8736 12.0682 12.7315 12.0682ZM17.8281 12.1193C17.1861 12.1193 16.6392 11.9446 16.1875 11.5952C15.7358 11.2429 15.3906 10.733 15.152 10.0653C14.9134 9.39489 14.794 8.58523 14.794 7.63636C14.794 6.69318 14.9134 5.88778 15.152 5.22017C15.3935 4.54972 15.7401 4.03835 16.1918 3.68608C16.6463 3.33097 17.1918 3.15341 17.8281 3.15341C18.4645 3.15341 19.0085 3.33097 19.4602 3.68608C19.9148 4.03835 20.2614 4.54972 20.5 5.22017C20.7415 5.88778 20.8622 6.69318 20.8622 7.63636C20.8622 8.58523 20.7429 9.39489 20.5043 10.0653C20.2656 10.733 19.9205 11.2429 19.4688 11.5952C19.017 11.9446 18.4702 12.1193 17.8281 12.1193ZM17.8281 11.1818C18.4645 11.1818 18.9588 10.875 19.3111 10.2614C19.6634 9.64773 19.8395 8.77273 19.8395 7.63636C19.8395 6.88068 19.7585 6.23722 19.5966 5.70597C19.4375 5.17472 19.2074 4.76989 18.9062 4.49148C18.608 4.21307 18.2486 4.07386 17.8281 4.07386C17.1974 4.07386 16.7045 4.38494 16.3494 5.0071C15.9943 5.62642 15.8168 6.50284 15.8168 7.63636C15.8168 8.39205 15.8963 9.03409 16.0554 9.5625C16.2145 10.0909 16.4432 10.4929 16.7415 10.7685C17.0426 11.044 17.4048 11.1818 17.8281 11.1818ZM25.3281 12.1193C24.6861 12.1193 24.1392 11.9446 23.6875 11.5952C23.2358 11.2429 22.8906 10.733 22.652 10.0653C22.4134 9.39489 22.294 8.58523 22.294 7.63636C22.294 6.69318 22.4134 5.88778 22.652 5.22017C22.8935 4.54972 23.2401 4.03835 23.6918 3.68608C24.1463 3.33097 24.6918 3.15341 25.3281 3.15341C25.9645 3.15341 26.5085 3.33097 26.9602 3.68608C27.4148 4.03835 27.7614 4.54972 28 5.22017C28.2415 5.88778 28.3622 6.69318 28.3622 7.63636C28.3622 8.58523 28.2429 9.39489 28.0043 10.0653C27.7656 10.733 27.4205 11.2429 26.9688 11.5952C26.517 11.9446 25.9702 12.1193 25.3281 12.1193ZM25.3281 11.1818C25.9645 11.1818 26.4588 10.875 26.8111 10.2614C27.1634 9.64773 27.3395 8.77273 27.3395 7.63636C27.3395 6.88068 27.2585 6.23722 27.0966 5.70597C26.9375 5.17472 26.7074 4.76989 26.4062 4.49148C26.108 4.21307 25.7486 4.07386 25.3281 4.07386C24.6974 4.07386 24.2045 4.38494 23.8494 5.0071C23.4943 5.62642 23.3168 6.50284 23.3168 7.63636C23.3168 8.39205 23.3963 9.03409 23.5554 9.5625C23.7145 10.0909 23.9432 10.4929 24.2415 10.7685C24.5426 11.044 24.9048 11.1818 25.3281 11.1818ZM32.8281 12.1193C32.1861 12.1193 31.6392 11.9446 31.1875 11.5952C30.7358 11.2429 30.3906 10.733 30.152 10.0653C29.9134 9.39489 29.794 8.58523 29.794 7.63636C29.794 6.69318 29.9134 5.88778 30.152 5.22017C30.3935 4.54972 30.7401 4.03835 31.1918 3.68608C31.6463 3.33097 32.1918 3.15341 32.8281 3.15341C33.4645 3.15341 34.0085 3.33097 34.4602 3.68608C34.9148 4.03835 35.2614 4.54972 35.5 5.22017C35.7415 5.88778 35.8622 6.69318 35.8622 7.63636C35.8622 8.58523 35.7429 9.39489 35.5043 10.0653C35.2656 10.733 34.9205 11.2429 34.4688 11.5952C34.017 11.9446 33.4702 12.1193 32.8281 12.1193ZM32.8281 11.1818C33.4645 11.1818 33.9588 10.875 34.3111 10.2614C34.6634 9.64773 34.8395 8.77273 34.8395 7.63636C34.8395 6.88068 34.7585 6.23722 34.5966 5.70597C34.4375 5.17472 34.2074 4.76989 33.9062 4.49148C33.608 4.21307 33.2486 4.07386 32.8281 4.07386C32.1974 4.07386 31.7045 4.38494 31.3494 5.0071C30.9943 5.62642 30.8168 6.50284 30.8168 7.63636C30.8168 8.39205 30.8963 9.03409 31.0554 9.5625C31.2145 10.0909 31.4432 10.4929 31.7415 10.7685C32.0426 11.044 32.4048 11.1818 32.8281 11.1818ZM38.4361 9.61364L38.419 8.36932H38.6236L41.4872 5.45455H42.7315L39.6804 8.53977H39.5952L38.4361 9.61364ZM37.4986 12V3.27273H38.5043V12H37.4986ZM41.6577 12L39.1009 8.76136L39.8168 8.0625L42.9361 12H41.6577Z" fill="#808080" fill-opacity="0.7"/>
<path d="M8.63068 84.7194C8.13068 84.7194 7.6804 84.62 7.27983 84.4211C6.87926 84.2223 6.55824 83.9495 6.31676 83.6029C6.07528 83.2563 5.94318 82.8615 5.92045 82.4183H6.94318C6.98295 82.8132 7.16193 83.1399 7.48011 83.3984C7.80114 83.6541 8.18466 83.7819 8.63068 83.7819C8.98864 83.7819 9.30682 83.6981 9.58523 83.5305C9.86648 83.3629 10.0866 83.1328 10.2457 82.8402C10.4077 82.5447 10.4886 82.2109 10.4886 81.8387C10.4886 81.4581 10.4048 81.1186 10.2372 80.8203C10.0724 80.5191 9.84517 80.2819 9.5554 80.1086C9.26563 79.9353 8.93466 79.8473 8.5625 79.8444C8.29545 79.8416 8.02131 79.8828 7.74006 79.968C7.45881 80.0504 7.22727 80.1569 7.04545 80.2876L6.05682 80.1683L6.58523 75.8728H11.1193V76.8103H7.47159L7.16477 79.3842H7.21591C7.39489 79.2421 7.61932 79.1242 7.8892 79.0305C8.15909 78.9367 8.44034 78.8899 8.73295 78.8899C9.26705 78.8899 9.7429 79.0177 10.1605 79.2734C10.581 79.5262 10.9105 79.8728 11.1491 80.3132C11.3906 80.7535 11.5114 81.2563 11.5114 81.8217C11.5114 82.3785 11.3864 82.8757 11.1364 83.3132C10.8892 83.7478 10.5483 84.0916 10.1136 84.3444C9.67898 84.5944 9.18466 84.7194 8.63068 84.7194ZM13.6261 84.6683C13.4158 84.6683 13.2354 84.593 13.0849 84.4424C12.9343 84.2919 12.859 84.1115 12.859 83.9012C12.859 83.691 12.9343 83.5106 13.0849 83.36C13.2354 83.2095 13.4158 83.1342 13.6261 83.1342C13.8363 83.1342 14.0167 83.2095 14.1673 83.36C14.3178 83.5106 14.3931 83.691 14.3931 83.9012C14.3931 84.0404 14.3576 84.1683 14.2866 84.2848C14.2184 84.4012 14.1261 84.495 14.0096 84.566C13.896 84.6342 13.7681 84.6683 13.6261 84.6683ZM18.7227 84.7194C18.0806 84.7194 17.5337 84.5447 17.082 84.1953C16.6303 83.843 16.2852 83.3331 16.0465 82.6654C15.8079 81.995 15.6886 81.1853 15.6886 80.2365C15.6886 79.2933 15.8079 78.4879 16.0465 77.8203C16.288 77.1498 16.6346 76.6384 17.0863 76.2862C17.5408 75.9311 18.0863 75.7535 18.7227 75.7535C19.359 75.7535 19.9031 75.9311 20.3548 76.2862C20.8093 76.6384 21.1559 77.1498 21.3945 77.8203C21.636 78.4879 21.7567 79.2933 21.7567 80.2365C21.7567 81.1853 21.6374 81.995 21.3988 82.6654C21.1602 83.3331 20.815 83.843 20.3633 84.1953C19.9116 84.5447 19.3647 84.7194 18.7227 84.7194ZM18.7227 83.7819C19.359 83.7819 19.8533 83.4751 20.2056 82.8615C20.5579 82.2478 20.734 81.3728 20.734 80.2365C20.734 79.4808 20.6531 78.8373 20.4911 78.3061C20.332 77.7748 20.1019 77.37 19.8008 77.0916C19.5025 76.8132 19.1431 76.674 18.7227 76.674C18.092 76.674 17.5991 76.985 17.244 77.6072C16.8888 78.2265 16.7113 79.1029 16.7113 80.2365C16.7113 80.9921 16.7908 81.6342 16.9499 82.1626C17.109 82.691 17.3377 83.093 17.636 83.3686C17.9371 83.6441 18.2994 83.7819 18.7227 83.7819ZM26.2227 84.7194C25.5806 84.7194 25.0337 84.5447 24.582 84.1953C24.1303 83.843 23.7852 83.3331 23.5465 82.6654C23.3079 81.995 23.1886 81.1853 23.1886 80.2365C23.1886 79.2933 23.3079 78.4879 23.5465 77.8203C23.788 77.1498 24.1346 76.6384 24.5863 76.2862C25.0408 75.9311 25.5863 75.7535 26.2227 75.7535C26.859 75.7535 27.4031 75.9311 27.8548 76.2862C28.3093 76.6384 28.6559 77.1498 28.8945 77.8203C29.136 78.4879 29.2567 79.2933 29.2567 80.2365C29.2567 81.1853 29.1374 81.995 28.8988 82.6654C28.6602 83.3331 28.315 83.843 27.8633 84.1953C27.4116 84.5447 26.8647 84.7194 26.2227 84.7194ZM26.2227 83.7819C26.859 83.7819 27.3533 83.4751 27.7056 82.8615C28.0579 82.2478 28.234 81.3728 28.234 80.2365C28.234 79.4808 28.1531 78.8373 27.9911 78.3061C27.832 77.7748 27.6019 77.37 27.3008 77.0916C27.0025 76.8132 26.6431 76.674 26.2227 76.674C25.592 76.674 25.0991 76.985 24.744 77.6072C24.3888 78.2265 24.2113 79.1029 24.2113 80.2365C24.2113 80.9921 24.2908 81.6342 24.4499 82.1626C24.609 82.691 24.8377 83.093 25.136 83.3686C25.4371 83.6441 25.7994 83.7819 26.2227 83.7819ZM33.7227 84.7194C33.0806 84.7194 32.5337 84.5447 32.082 84.1953C31.6303 83.843 31.2852 83.3331 31.0465 82.6654C30.8079 81.995 30.6886 81.1853 30.6886 80.2365C30.6886 79.2933 30.8079 78.4879 31.0465 77.8203C31.288 77.1498 31.6346 76.6384 32.0863 76.2862C32.5408 75.9311 33.0863 75.7535 33.7227 75.7535C34.359 75.7535 34.9031 75.9311 35.3548 76.2862C35.8093 76.6384 36.1559 77.1498 36.3945 77.8203C36.636 78.4879 36.7567 79.2933 36.7567 80.2365C36.7567 81.1853 36.6374 81.995 36.3988 82.6654C36.1602 83.3331 35.815 83.843 35.3633 84.1953C34.9116 84.5447 34.3647 84.7194 33.7227 84.7194ZM33.7227 83.7819C34.359 83.7819 34.8533 83.4751 35.2056 82.8615C35.5579 82.2478 35.734 81.3728 35.734 80.2365C35.734 79.4808 35.6531 78.8373 35.4911 78.3061C35.332 77.7748 35.1019 77.37 34.8008 77.0916C34.5025 76.8132 34.1431 76.674 33.7227 76.674C33.092 76.674 32.5991 76.985 32.244 77.6072C31.8888 78.2265 31.7113 79.1029 31.7113 80.2365C31.7113 80.9921 31.7908 81.6342 31.9499 82.1626C32.109 82.691 32.3377 83.093 32.636 83.3686C32.9371 83.6441 33.2994 83.7819 33.7227 83.7819ZM39.3306 82.2137L39.3136 80.9694H39.5181L42.3817 78.0546H43.6261L40.5749 81.1399H40.4897L39.3306 82.2137ZM38.3931 84.6001V75.8728H39.3988V84.6001H38.3931ZM42.5522 84.6001L39.9954 81.3615L40.7113 80.6626L43.8306 84.6001H42.5522Z" fill="#808080" fill-opacity="0.7"/>
<path d="M4.69886 155.41V154.541L8.53409 148.473H9.16477V149.819H8.73864L5.84091 154.404V154.473H11.0057V155.41H4.69886ZM8.80682 157.2V155.146V154.741V148.473H9.8125V157.2H8.80682ZM12.9425 157.268C12.7322 157.268 12.5518 157.193 12.4013 157.042C12.2507 156.892 12.1754 156.711 12.1754 156.501C12.1754 156.291 12.2507 156.11 12.4013 155.96C12.5518 155.809 12.7322 155.734 12.9425 155.734C13.1527 155.734 13.3331 155.809 13.4837 155.96C13.6342 156.11 13.7095 156.291 13.7095 156.501C13.7095 156.64 13.674 156.768 13.603 156.885C13.5348 157.001 13.4425 157.095 13.326 157.166C13.2124 157.234 13.0845 157.268 12.9425 157.268ZM18.0391 157.319C17.397 157.319 16.8501 157.145 16.3984 156.795C15.9467 156.443 15.6016 155.933 15.3629 155.265C15.1243 154.595 15.005 153.785 15.005 152.836C15.005 151.893 15.1243 151.088 15.3629 150.42C15.6044 149.75 15.951 149.238 16.4027 148.886C16.8572 148.531 17.4027 148.353 18.0391 148.353C18.6754 148.353 19.2195 148.531 19.6712 148.886C20.1257 149.238 20.4723 149.75 20.7109 150.42C20.9524 151.088 21.0732 151.893 21.0732 152.836C21.0732 153.785 20.9538 154.595 20.7152 155.265C20.4766 155.933 20.1314 156.443 19.6797 156.795C19.228 157.145 18.6811 157.319 18.0391 157.319ZM18.0391 156.382C18.6754 156.382 19.1697 156.075 19.522 155.461C19.8743 154.848 20.0504 153.973 20.0504 152.836C20.0504 152.081 19.9695 151.437 19.8075 150.906C19.6484 150.375 19.4183 149.97 19.1172 149.691C18.8189 149.413 18.4595 149.274 18.0391 149.274C17.4084 149.274 16.9155 149.585 16.5604 150.207C16.2053 150.826 16.0277 151.703 16.0277 152.836C16.0277 153.592 16.1072 154.234 16.2663 154.762C16.4254 155.291 16.6541 155.693 16.9524 155.968C17.2536 156.244 17.6158 156.382 18.0391 156.382ZM25.5391 157.319C24.897 157.319 24.3501 157.145 23.8984 156.795C23.4467 156.443 23.1016 155.933 22.8629 155.265C22.6243 154.595 22.505 153.785 22.505 152.836C22.505 151.893 22.6243 151.088 22.8629 150.42C23.1044 149.75 23.451 149.238 23.9027 148.886C24.3572 148.531 24.9027 148.353 25.5391 148.353C26.1754 148.353 26.7195 148.531 27.1712 148.886C27.6257 149.238 27.9723 149.75 28.2109 150.42C28.4524 151.088 28.5732 151.893 28.5732 152.836C28.5732 153.785 28.4538 154.595 28.2152 155.265C27.9766 155.933 27.6314 156.443 27.1797 156.795C26.728 157.145 26.1811 157.319 25.5391 157.319ZM25.5391 156.382C26.1754 156.382 26.6697 156.075 27.022 155.461C27.3743 154.848 27.5504 153.973 27.5504 152.836C27.5504 152.081 27.4695 151.437 27.3075 150.906C27.1484 150.375 26.9183 149.97 26.6172 149.691C26.3189 149.413 25.9595 149.274 25.5391 149.274C24.9084 149.274 24.4155 149.585 24.0604 150.207C23.7053 150.826 23.5277 151.703 23.5277 152.836C23.5277 153.592 23.6072 154.234 23.7663 154.762C23.9254 155.291 24.1541 155.693 24.4524 155.968C24.7536 156.244 25.1158 156.382 25.5391 156.382ZM33.0391 157.319C32.397 157.319 31.8501 157.145 31.3984 156.795C30.9467 156.443 30.6016 155.933 30.3629 155.265C30.1243 154.595 30.005 153.785 30.005 152.836C30.005 151.893 30.1243 151.088 30.3629 150.42C30.6044 149.75 30.951 149.238 31.4027 148.886C31.8572 148.531 32.4027 148.353 33.0391 148.353C33.6754 148.353 34.2195 148.531 34.6712 148.886C35.1257 149.238 35.4723 149.75 35.7109 150.42C35.9524 151.088 36.0732 151.893 36.0732 152.836C36.0732 153.785 35.9538 154.595 35.7152 155.265C35.4766 155.933 35.1314 156.443 34.6797 156.795C34.228 157.145 33.6811 157.319 33.0391 157.319ZM33.0391 156.382C33.6754 156.382 34.1697 156.075 34.522 155.461C34.8743 154.848 35.0504 153.973 35.0504 152.836C35.0504 152.081 34.9695 151.437 34.8075 150.906C34.6484 150.375 34.4183 149.97 34.1172 149.691C33.8189 149.413 33.4595 149.274 33.0391 149.274C32.4084 149.274 31.9155 149.585 31.5604 150.207C31.2053 150.826 31.0277 151.703 31.0277 152.836C31.0277 153.592 31.1072 154.234 31.2663 154.762C31.4254 155.291 31.6541 155.693 31.9524 155.968C32.2536 156.244 32.6158 156.382 33.0391 156.382ZM38.647 154.814L38.63 153.569H38.8345L41.6982 150.654H42.9425L39.8913 153.74H39.8061L38.647 154.814ZM37.7095 157.2V148.473H38.7152V157.2H37.7095ZM41.8686 157.2L39.3118 153.961L40.0277 153.262L43.147 157.2H41.8686Z" fill="#808080" fill-opacity="0.7"/>
<path d="M7.85227 229.919C7.28977 229.919 6.78835 229.823 6.34801 229.63C5.91051 229.436 5.5625 229.168 5.30398 228.824C5.0483 228.478 4.90909 228.076 4.88636 227.618H5.96023C5.98295 227.899 6.07955 228.142 6.25 228.347C6.42045 228.549 6.64347 228.705 6.91903 228.816C7.1946 228.926 7.5 228.982 7.83523 228.982C8.21023 228.982 8.54261 228.917 8.83239 228.786C9.12216 228.655 9.34943 228.473 9.5142 228.24C9.67898 228.007 9.76136 227.738 9.76136 227.431C9.76136 227.11 9.68182 226.827 9.52273 226.583C9.36364 226.336 9.13068 226.142 8.82386 226.003C8.51705 225.864 8.14205 225.794 7.69886 225.794H7V224.857H7.69886C8.04545 224.857 8.34943 224.794 8.6108 224.669C8.875 224.544 9.08097 224.368 9.22869 224.141C9.37926 223.914 9.45455 223.647 9.45455 223.34C9.45455 223.044 9.3892 222.787 9.25852 222.569C9.12784 222.35 8.94318 222.179 8.70455 222.057C8.46875 221.935 8.19034 221.874 7.86932 221.874C7.56818 221.874 7.28409 221.929 7.01705 222.04C6.75284 222.148 6.53693 222.306 6.36932 222.513C6.2017 222.718 6.1108 222.965 6.09659 223.255H5.07386C5.09091 222.797 5.22869 222.397 5.48722 222.053C5.74574 221.706 6.08381 221.436 6.50142 221.243C6.92188 221.05 7.38352 220.953 7.88636 220.953C8.42614 220.953 8.8892 221.063 9.27557 221.282C9.66193 221.497 9.95881 221.783 10.1662 222.138C10.3736 222.493 10.4773 222.877 10.4773 223.289C10.4773 223.78 10.348 224.199 10.0895 224.546C9.83381 224.892 9.4858 225.132 9.04545 225.266V225.334C9.59659 225.425 10.027 225.659 10.3366 226.037C10.6463 226.412 10.8011 226.877 10.8011 227.431C10.8011 227.905 10.6719 228.331 10.4134 228.709C10.1577 229.084 9.80824 229.38 9.36506 229.596C8.92188 229.811 8.41761 229.919 7.85227 229.919ZM13.0245 229.868C12.8143 229.868 12.6339 229.793 12.4833 229.642C12.3327 229.492 12.2575 229.311 12.2575 229.101C12.2575 228.891 12.3327 228.711 12.4833 228.56C12.6339 228.409 12.8143 228.334 13.0245 228.334C13.2347 228.334 13.4151 228.409 13.5657 228.56C13.7163 228.711 13.7915 228.891 13.7915 229.101C13.7915 229.24 13.756 229.368 13.685 229.485C13.6168 229.601 13.5245 229.695 13.408 229.766C13.2944 229.834 13.1665 229.868 13.0245 229.868ZM18.1211 229.919C17.479 229.919 16.9322 229.745 16.4805 229.395C16.0288 229.043 15.6836 228.533 15.445 227.865C15.2063 227.195 15.087 226.385 15.087 225.436C15.087 224.493 15.2063 223.688 15.445 223.02C15.6864 222.35 16.033 221.838 16.4847 221.486C16.9393 221.131 17.4847 220.953 18.1211 220.953C18.7575 220.953 19.3015 221.131 19.7532 221.486C20.2077 221.838 20.5543 222.35 20.793 223.02C21.0344 223.688 21.1552 224.493 21.1552 225.436C21.1552 226.385 21.0359 227.195 20.7972 227.865C20.5586 228.533 20.2134 229.043 19.7617 229.395C19.31 229.745 18.7631 229.919 18.1211 229.919ZM18.1211 228.982C18.7575 228.982 19.2518 228.675 19.604 228.061C19.9563 227.448 20.1325 226.573 20.1325 225.436C20.1325 224.681 20.0515 224.037 19.8896 223.506C19.7305 222.975 19.5004 222.57 19.1992 222.292C18.9009 222.013 18.5415 221.874 18.1211 221.874C17.4904 221.874 16.9975 222.185 16.6424 222.807C16.2873 223.426 16.1097 224.303 16.1097 225.436C16.1097 226.192 16.1893 226.834 16.3484 227.363C16.5075 227.891 16.7362 228.293 17.0344 228.569C17.3356 228.844 17.6978 228.982 18.1211 228.982ZM25.6211 229.919C24.979 229.919 24.4322 229.745 23.9805 229.395C23.5288 229.043 23.1836 228.533 22.945 227.865C22.7063 227.195 22.587 226.385 22.587 225.436C22.587 224.493 22.7063 223.688 22.945 223.02C23.1864 222.35 23.533 221.838 23.9847 221.486C24.4393 221.131 24.9847 220.953 25.6211 220.953C26.2575 220.953 26.8015 221.131 27.2532 221.486C27.7077 221.838 28.0543 222.35 28.293 223.02C28.5344 223.688 28.6552 224.493 28.6552 225.436C28.6552 226.385 28.5359 227.195 28.2972 227.865C28.0586 228.533 27.7134 229.043 27.2617 229.395C26.81 229.745 26.2631 229.919 25.6211 229.919ZM25.6211 228.982C26.2575 228.982 26.7518 228.675 27.104 228.061C27.4563 227.448 27.6325 226.573 27.6325 225.436C27.6325 224.681 27.5515 224.037 27.3896 223.506C27.2305 222.975 27.0004 222.57 26.6992 222.292C26.4009 222.013 26.0415 221.874 25.6211 221.874C24.9904 221.874 24.4975 222.185 24.1424 222.807C23.7873 223.426 23.6097 224.303 23.6097 225.436C23.6097 226.192 23.6893 226.834 23.8484 227.363C24.0075 227.891 24.2362 228.293 24.5344 228.569C24.8356 228.844 25.1978 228.982 25.6211 228.982ZM33.1211 229.919C32.479 229.919 31.9322 229.745 31.4805 229.395C31.0288 229.043 30.6836 228.533 30.445 227.865C30.2063 227.195 30.087 226.385 30.087 225.436C30.087 224.493 30.2063 223.688 30.445 223.02C30.6864 222.35 31.033 221.838 31.4847 221.486C31.9393 221.131 32.4847 220.953 33.1211 220.953C33.7575 220.953 34.3015 221.131 34.7532 221.486C35.2077 221.838 35.5543 222.35 35.793 223.02C36.0344 223.688 36.1552 224.493 36.1552 225.436C36.1552 226.385 36.0359 227.195 35.7972 227.865C35.5586 228.533 35.2134 229.043 34.7617 229.395C34.31 229.745 33.7631 229.919 33.1211 229.919ZM33.1211 228.982C33.7575 228.982 34.2518 228.675 34.604 228.061C34.9563 227.448 35.1325 226.573 35.1325 225.436C35.1325 224.681 35.0515 224.037 34.8896 223.506C34.7305 222.975 34.5004 222.57 34.1992 222.292C33.9009 222.013 33.5415 221.874 33.1211 221.874C32.4904 221.874 31.9975 222.185 31.6424 222.807C31.2873 223.426 31.1097 224.303 31.1097 225.436C31.1097 226.192 31.1893 226.834 31.3484 227.363C31.5075 227.891 31.7362 228.293 32.0344 228.569C32.3356 228.844 32.6978 228.982 33.1211 228.982ZM38.729 227.414L38.712 226.169H38.9165L41.7802 223.255H43.0245L39.9734 226.34H39.8881L38.729 227.414ZM37.7915 229.8V221.073H38.7972V229.8H37.7915ZM41.9506 229.8L39.3938 226.561L40.1097 225.863L43.229 229.8H41.9506Z" fill="#808080" fill-opacity="0.7"/>
<path d="M4.90341 302.4V301.633L7.78409 298.479C8.12216 298.11 8.40057 297.789 8.61932 297.516C8.83807 297.241 9 296.982 9.10511 296.741C9.21307 296.496 9.26705 296.241 9.26705 295.974C9.26705 295.667 9.19318 295.401 9.04545 295.177C8.90057 294.952 8.7017 294.779 8.44886 294.657C8.19602 294.535 7.91193 294.474 7.59659 294.474C7.26136 294.474 6.96875 294.543 6.71875 294.683C6.47159 294.819 6.27983 295.011 6.14347 295.258C6.00994 295.505 5.94318 295.795 5.94318 296.127H4.9375C4.9375 295.616 5.0554 295.167 5.29119 294.781C5.52699 294.394 5.84801 294.093 6.25426 293.877C6.66335 293.661 7.12216 293.553 7.63068 293.553C8.14205 293.553 8.59517 293.661 8.99006 293.877C9.38494 294.093 9.6946 294.384 9.91903 294.751C10.1435 295.117 10.2557 295.525 10.2557 295.974C10.2557 296.295 10.1974 296.609 10.081 296.916C9.96733 297.22 9.76847 297.559 9.48438 297.934C9.20312 298.306 8.8125 298.761 8.3125 299.298L6.35227 301.394V301.462H10.4091V302.4H4.90341ZM12.919 302.468C12.7088 302.468 12.5284 302.393 12.3778 302.242C12.2273 302.092 12.152 301.911 12.152 301.701C12.152 301.491 12.2273 301.31 12.3778 301.16C12.5284 301.009 12.7088 300.934 12.919 300.934C13.1293 300.934 13.3097 301.009 13.4602 301.16C13.6108 301.31 13.6861 301.491 13.6861 301.701C13.6861 301.84 13.6506 301.968 13.5795 302.085C13.5114 302.201 13.419 302.295 13.3026 302.366C13.1889 302.434 13.0611 302.468 12.919 302.468ZM18.0156 302.519C17.3736 302.519 16.8267 302.345 16.375 301.995C15.9233 301.643 15.5781 301.133 15.3395 300.465C15.1009 299.795 14.9815 298.985 14.9815 298.036C14.9815 297.093 15.1009 296.288 15.3395 295.62C15.581 294.95 15.9276 294.438 16.3793 294.086C16.8338 293.731 17.3793 293.553 18.0156 293.553C18.652 293.553 19.196 293.731 19.6477 294.086C20.1023 294.438 20.4489 294.95 20.6875 295.62C20.929 296.288 21.0497 297.093 21.0497 298.036C21.0497 298.985 20.9304 299.795 20.6918 300.465C20.4531 301.133 20.108 301.643 19.6562 301.995C19.2045 302.345 18.6577 302.519 18.0156 302.519ZM18.0156 301.582C18.652 301.582 19.1463 301.275 19.4986 300.661C19.8509 300.048 20.027 299.173 20.027 298.036C20.027 297.281 19.946 296.637 19.7841 296.106C19.625 295.575 19.3949 295.17 19.0938 294.891C18.7955 294.613 18.4361 294.474 18.0156 294.474C17.3849 294.474 16.892 294.785 16.5369 295.407C16.1818 296.026 16.0043 296.903 16.0043 298.036C16.0043 298.792 16.0838 299.434 16.2429 299.962C16.402 300.491 16.6307 300.893 16.929 301.168C17.2301 301.444 17.5923 301.582 18.0156 301.582ZM25.5156 302.519C24.8736 302.519 24.3267 302.345 23.875 301.995C23.4233 301.643 23.0781 301.133 22.8395 300.465C22.6009 299.795 22.4815 298.985 22.4815 298.036C22.4815 297.093 22.6009 296.288 22.8395 295.62C23.081 294.95 23.4276 294.438 23.8793 294.086C24.3338 293.731 24.8793 293.553 25.5156 293.553C26.152 293.553 26.696 293.731 27.1477 294.086C27.6023 294.438 27.9489 294.95 28.1875 295.62C28.429 296.288 28.5497 297.093 28.5497 298.036C28.5497 298.985 28.4304 299.795 28.1918 300.465C27.9531 301.133 27.608 301.643 27.1562 301.995C26.7045 302.345 26.1577 302.519 25.5156 302.519ZM25.5156 301.582C26.152 301.582 26.6463 301.275 26.9986 300.661C27.3509 300.048 27.527 299.173 27.527 298.036C27.527 297.281 27.446 296.637 27.2841 296.106C27.125 295.575 26.8949 295.17 26.5938 294.891C26.2955 294.613 25.9361 294.474 25.5156 294.474C24.8849 294.474 24.392 294.785 24.0369 295.407C23.6818 296.026 23.5043 296.903 23.5043 298.036C23.5043 298.792 23.5838 299.434 23.7429 299.962C23.902 300.491 24.1307 300.893 24.429 301.168C24.7301 301.444 25.0923 301.582 25.5156 301.582ZM33.0156 302.519C32.3736 302.519 31.8267 302.345 31.375 301.995C30.9233 301.643 30.5781 301.133 30.3395 300.465C30.1009 299.795 29.9815 298.985 29.9815 298.036C29.9815 297.093 30.1009 296.288 30.3395 295.62C30.581 294.95 30.9276 294.438 31.3793 294.086C31.8338 293.731 32.3793 293.553 33.0156 293.553C33.652 293.553 34.196 293.731 34.6477 294.086C35.1023 294.438 35.4489 294.95 35.6875 295.62C35.929 296.288 36.0497 297.093 36.0497 298.036C36.0497 298.985 35.9304 299.795 35.6918 300.465C35.4531 301.133 35.108 301.643 34.6562 301.995C34.2045 302.345 33.6577 302.519 33.0156 302.519ZM33.0156 301.582C33.652 301.582 34.1463 301.275 34.4986 300.661C34.8509 300.048 35.027 299.173 35.027 298.036C35.027 297.281 34.946 296.637 34.7841 296.106C34.625 295.575 34.3949 295.17 34.0938 294.891C33.7955 294.613 33.4361 294.474 33.0156 294.474C32.3849 294.474 31.892 294.785 31.5369 295.407C31.1818 296.026 31.0043 296.903 31.0043 298.036C31.0043 298.792 31.0838 299.434 31.2429 299.962C31.402 300.491 31.6307 300.893 31.929 301.168C32.2301 301.444 32.5923 301.582 33.0156 301.582ZM38.6236 300.014L38.6065 298.769H38.8111L41.6747 295.854H42.919L39.8679 298.94H39.7827L38.6236 300.014ZM37.6861 302.4V293.673H38.6918V302.4H37.6861ZM41.8452 302.4L39.2884 299.161L40.0043 298.462L43.1236 302.4H41.8452Z" fill="#808080" fill-opacity="0.7"/>
<path d="M39.75 375.119C39.108 375.119 38.5611 374.945 38.1094 374.595C37.6577 374.243 37.3125 373.733 37.0739 373.065C36.8352 372.395 36.7159 371.585 36.7159 370.636C36.7159 369.693 36.8352 368.888 37.0739 368.22C37.3153 367.55 37.6619 367.038 38.1136 366.686C38.5682 366.331 39.1136 366.153 39.75 366.153C40.3864 366.153 40.9304 366.331 41.3821 366.686C41.8366 367.038 42.1832 367.55 42.4219 368.22C42.6634 368.888 42.7841 369.693 42.7841 370.636C42.7841 371.585 42.6648 372.395 42.4261 373.065C42.1875 373.733 41.8423 374.243 41.3906 374.595C40.9389 374.945 40.392 375.119 39.75 375.119ZM39.75 374.182C40.3864 374.182 40.8807 373.875 41.233 373.261C41.5852 372.648 41.7614 371.773 41.7614 370.636C41.7614 369.881 41.6804 369.237 41.5185 368.706C41.3594 368.175 41.1293 367.77 40.8281 367.491C40.5298 367.213 40.1705 367.074 39.75 367.074C39.1193 367.074 38.6264 367.385 38.2713 368.007C37.9162 368.626 37.7386 369.503 37.7386 370.636C37.7386 371.392 37.8182 372.034 37.9773 372.562C38.1364 373.091 38.3651 373.493 38.6634 373.768C38.9645 374.044 39.3267 374.182 39.75 374.182Z" fill="#808080" fill-opacity="0.7"/>
<line x1="49" y1="5.5" x2="1130" y2="5.5" stroke="#00001A" stroke-opacity="0.15" stroke-dasharray="2"/>
<line x1="49" y1="78.7" x2="1130" y2="78.7" stroke="#00001A" stroke-opacity="0.15" stroke-dasharray="2"/>
<line x1="49" y1="151.9" x2="1130" y2="151.9" stroke="#00001A" stroke-opacity="0.15" stroke-dasharray="2"/>
<line x1="49" y1="225.1" x2="1130" y2="225.1" stroke="#00001A" stroke-opacity="0.15" stroke-dasharray="2"/>
<line x1="49" y1="298.3" x2="1130" y2="298.3" stroke="#00001A" stroke-opacity="0.15" stroke-dasharray="2"/>
<line x1="49" y1="371.5" x2="1130" y2="371.5" stroke="#00001A" stroke-opacity="0.3"/>
<line x1="48.5" y1="372" x2="48.5" y2="6" stroke="#00001A" stroke-opacity="0.15" stroke-dasharray="2"/>
<line x1="138.583" y1="372" x2="138.583" y2="6" stroke="#00001A" stroke-opacity="0.15" stroke-dasharray="2"/>
<line x1="228.667" y1="372" x2="228.667" y2="6" stroke="#00001A" stroke-opacity="0.15" stroke-dasharray="2"/>
<line x1="318.75" y1="372" x2="318.75" y2="6" stroke="#00001A" stroke-opacity="0.15" stroke-dasharray="2"/>
<line x1="408.833" y1="372" x2="408.833" y2="6" stroke="#00001A" stroke-opacity="0.15" stroke-dasharray="2"/>
<line x1="498.917" y1="372" x2="498.917" y2="6" stroke="#00001A" stroke-opacity="0.15" stroke-dasharray="2"/>
<line x1="589" y1="372" x2="589" y2="6" stroke="#00001A" stroke-opacity="0.15" stroke-dasharray="2"/>
<line x1="679.083" y1="372" x2="679.083" y2="6" stroke="#00001A" stroke-opacity="0.15" stroke-dasharray="2"/>
<line x1="769.167" y1="372" x2="769.167" y2="6" stroke="#00001A" stroke-opacity="0.15" stroke-dasharray="2"/>
<line x1="859.25" y1="372" x2="859.25" y2="6" stroke="#00001A" stroke-opacity="0.15" stroke-dasharray="2"/>
<line x1="949.333" y1="372" x2="949.333" y2="6" stroke="#00001A" stroke-opacity="0.15" stroke-dasharray="2"/>
<line x1="1039.42" y1="372" x2="1039.42" y2="6" stroke="#00001A" stroke-opacity="0.15" stroke-dasharray="2"/>
<line x1="1129.5" y1="372" x2="1129.5" y2="6" stroke="#00001A" stroke-opacity="0.15" stroke-dasharray="2"/>
<path d="M156.636 309.24C114.818 309.24 114.818 196.173 73 196.173V371H993V110C947.221 110 944.221 181.295 902.403 181.295C860.585 181.295 862.735 142.857 820.917 142.857C779.099 142.857 766.593 199.273 726.529 199.273C672.884 199.273 698.688 185.014 659.303 182.534C617.485 182.534 611.487 269.948 569.669 269.948C527.85 269.948 534.075 217.872 492.257 217.872C450.439 217.872 443.761 251.969 401.943 251.969C360.125 251.969 358.201 170.755 316.383 170.755C274.565 170.755 279.431 260.029 237.613 260.029C195.795 260.029 198.455 309.24 156.636 309.24Z" fill="url(#paint0_linear_241_814)"/>
<g filter="url(#filter0_ddd_241_814)">
<path d="M73 194.568C114.782 194.568 116.535 309 158.317 309C200.099 309 198.12 260 239.903 260C281.685 260 276.823 169.877 318.605 169.877C360.387 169.877 361.631 251.975 403.413 251.975C445.195 251.975 450.51 217.407 492.292 217.407C534.074 217.407 531.247 269.259 573.03 269.259C614.812 269.259 617.412 182.222 659.195 182.222C688.369 182.222 684.581 198.889 726.363 198.889C768.145 198.889 779.566 143.333 821.348 143.333C863.13 143.333 862.339 182.222 904.121 182.222C945.903 182.222 951.218 110 993 110" stroke="#DE476F" stroke-width="2"/>
</g>
<circle cx="993" cy="109" r="3.5" fill="white" stroke="#DE476F"/>
<path d="M933 70.4615C933 59.7132 941.713 51 952.462 51H1033.14C1043.89 51 1052.6 59.7132 1052.6 70.4615C1052.6 81.2099 1043.89 89.9231 1033.14 89.9231H1010.15C1006.14 89.9231 1002.21 91.0593 998.82 93.2001L998.466 93.4239C995.005 95.6086 990.595 95.6086 987.134 93.4239L986.78 93.2001C983.388 91.0593 979.459 89.9231 975.448 89.9231H952.462C941.713 89.9231 933 81.2099 933 70.4615Z" fill="#DE476F"/>
<path d="M963.932 77V74.3001H958.227V72.7251L963.852 65.0272H965.732V72.7251H967.387V74.3001H965.732V77H963.932ZM959.625 73.4162L959.32 72.7251H963.932V66.5379L964.446 66.6986L959.625 73.4162ZM969.195 79.3624V78.4785C969.549 78.3928 969.822 78.2267 970.015 77.9803C970.207 77.7446 970.325 77.4178 970.368 77H969.516V74.9108H971.365V76.2768C971.365 77.1339 971.182 77.825 970.818 78.35C970.454 78.8749 969.913 79.2124 969.195 79.3624ZM977.682 77.1929C976.847 77.1929 976.113 77.0321 975.481 76.7107C974.859 76.3786 974.377 75.9393 974.034 75.3929C973.691 74.8358 973.52 74.2197 973.52 73.5448C973.52 72.7734 973.729 72.1091 974.147 71.552C974.575 70.9841 975.175 70.5716 975.947 70.3145L975.866 70.7966C975.299 70.5824 974.849 70.2234 974.516 69.7199C974.195 69.2056 974.034 68.6431 974.034 68.0324C974.034 67.4218 974.19 66.8753 974.5 66.3932C974.822 65.9111 975.256 65.5307 975.802 65.2522C976.359 64.9736 976.986 64.8343 977.682 64.8343C978.39 64.8343 979.016 64.9736 979.563 65.2522C980.109 65.52 980.538 65.895 980.848 66.3771C981.17 66.8593 981.331 67.411 981.331 68.0324C981.331 68.6646 981.164 69.2324 980.832 69.736C980.511 70.2288 980.072 70.5824 979.515 70.7966L979.434 70.3145C980.206 70.5824 980.806 70.9948 981.234 71.552C981.663 72.1091 981.877 72.7734 981.877 73.5448C981.877 74.2197 981.7 74.8358 981.347 75.3929C981.004 75.9393 980.516 76.3786 979.884 76.7107C979.252 77.0321 978.518 77.1929 977.682 77.1929ZM977.682 75.5858C978.143 75.5858 978.545 75.5001 978.888 75.3286C979.231 75.1465 979.498 74.9001 979.691 74.5894C979.884 74.2787 979.981 73.9144 979.981 73.4965C979.981 73.0787 979.884 72.7144 979.691 72.4037C979.498 72.093 979.231 71.852 978.888 71.6805C978.545 71.5091 978.143 71.4234 977.682 71.4234C977.232 71.4234 976.836 71.5091 976.493 71.6805C976.15 71.852 975.882 72.093 975.69 72.4037C975.497 72.7144 975.4 73.0787 975.4 73.4965C975.4 73.9144 975.497 74.2787 975.69 74.5894C975.882 74.9001 976.15 75.1465 976.493 75.3286C976.836 75.5001 977.232 75.5858 977.682 75.5858ZM977.682 69.8163C978.025 69.8163 978.325 69.7467 978.582 69.6074C978.85 69.4574 979.059 69.2538 979.209 68.9967C979.359 68.7396 979.434 68.4503 979.434 68.1289C979.434 67.7967 979.359 67.5075 979.209 67.261C979.059 67.0039 978.85 66.8057 978.582 66.6664C978.325 66.5164 978.025 66.4414 977.682 66.4414C977.35 66.4414 977.05 66.5164 976.782 66.6664C976.515 66.8057 976.306 67.0039 976.156 67.261C976.006 67.5075 975.931 67.7967 975.931 68.1289C975.931 68.4503 976.006 68.7396 976.156 68.9967C976.306 69.2538 976.515 69.4574 976.782 69.6074C977.05 69.7467 977.35 69.8163 977.682 69.8163ZM987.146 77.1929C986.503 77.1929 985.898 77.075 985.33 76.8393C984.773 76.6036 984.291 76.2715 983.884 75.8429C983.487 75.4143 983.203 74.9108 983.032 74.3322L984.639 73.7215C984.853 74.2894 985.18 74.7286 985.619 75.0394C986.058 75.3501 986.567 75.5054 987.146 75.5054C987.617 75.5054 988.024 75.4143 988.367 75.2322C988.721 75.0501 988.994 74.7929 989.187 74.4608C989.39 74.1287 989.492 73.7269 989.492 73.2555C989.492 72.7948 989.39 72.3984 989.187 72.0662C988.994 71.7341 988.721 71.4823 988.367 71.3109C988.024 71.1395 987.617 71.0538 987.146 71.0538C986.953 71.0538 986.755 71.0698 986.551 71.102C986.358 71.1341 986.187 71.177 986.037 71.2306L985.619 70.3467L988.769 66.6343H983.675V65.0272H990.89V66.5539L987.805 70.2502L987.757 69.6395C988.474 69.6502 989.107 69.811 989.653 70.1217C990.199 70.4217 990.623 70.8395 990.923 71.3752C991.233 71.9002 991.389 72.5109 991.389 73.2073C991.389 73.9572 991.206 74.6376 990.842 75.2483C990.478 75.8483 989.974 76.325 989.332 76.6786C988.699 77.0214 987.971 77.1929 987.146 77.1929ZM996.649 77.1929C996.006 77.1929 995.401 77.075 994.833 76.8393C994.276 76.6036 993.794 76.2715 993.387 75.8429C992.99 75.4143 992.706 74.9108 992.535 74.3322L994.142 73.7215C994.356 74.2894 994.683 74.7286 995.122 75.0394C995.562 75.3501 996.071 75.5054 996.649 75.5054C997.12 75.5054 997.528 75.4143 997.87 75.2322C998.224 75.0501 998.497 74.7929 998.69 74.4608C998.894 74.1287 998.995 73.7269 998.995 73.2555C998.995 72.7948 998.894 72.3984 998.69 72.0662C998.497 71.7341 998.224 71.4823 997.87 71.3109C997.528 71.1395 997.12 71.0538 996.649 71.0538C996.456 71.0538 996.258 71.0698 996.054 71.102C995.862 71.1341 995.69 71.177 995.54 71.2306L995.122 70.3467L998.272 66.6343H993.178V65.0272H1000.39V66.5539L997.308 70.2502L997.26 69.6395C997.978 69.6502 998.61 69.811 999.156 70.1217C999.703 70.4217 1000.13 70.8395 1000.43 71.3752C1000.74 71.9002 1000.89 72.5109 1000.89 73.2073C1000.89 73.9572 1000.71 74.6376 1000.35 75.2483C999.981 75.8483 999.478 76.325 998.835 76.6786C998.203 77.0214 997.474 77.1929 996.649 77.1929ZM1002.97 79.3624V78.4785C1003.32 78.3928 1003.6 78.2267 1003.79 77.9803C1003.98 77.7446 1004.1 77.4178 1004.14 77H1003.29V74.9108H1005.14V76.2768C1005.14 77.1339 1004.96 77.825 1004.59 78.35C1004.23 78.8749 1003.69 79.2124 1002.97 79.3624ZM1008.75 77V66.6343H1006.45V65.0272H1010.63V77H1008.75ZM1014.72 77V66.6343H1012.43V65.0272H1016.61V77H1014.72ZM1019.65 77L1023.75 71.6966L1024.07 71.9055C1023.92 72.0662 1023.76 72.1948 1023.57 72.2912C1023.4 72.3877 1023.21 72.4573 1023.01 72.5002C1022.82 72.543 1022.61 72.5644 1022.38 72.5644C1021.67 72.5644 1021.02 72.4037 1020.46 72.0823C1019.89 71.7502 1019.44 71.3002 1019.11 70.7324C1018.78 70.1538 1018.62 69.5003 1018.62 68.7717C1018.62 68.011 1018.8 67.336 1019.15 66.7468C1019.51 66.1575 1019.99 65.6915 1020.6 65.3486C1021.21 65.0058 1021.91 64.8343 1022.69 64.8343C1023.48 64.8343 1024.18 65.0058 1024.78 65.3486C1025.39 65.6915 1025.87 66.1629 1026.21 66.7628C1026.56 67.3521 1026.74 68.0271 1026.74 68.7878C1026.74 69.1949 1026.7 69.5967 1026.61 69.9931C1026.53 70.3895 1026.38 70.802 1026.16 71.2306C1025.95 71.6484 1025.65 72.1091 1025.26 72.6126L1021.92 77H1019.65ZM1022.69 70.9734C1023.11 70.9734 1023.48 70.877 1023.8 70.6841C1024.12 70.4913 1024.38 70.2288 1024.57 69.8967C1024.76 69.5645 1024.86 69.1842 1024.86 68.7556C1024.86 68.3164 1024.76 67.9307 1024.57 67.5985C1024.38 67.2557 1024.11 66.9932 1023.78 66.8111C1023.46 66.6182 1023.1 66.5218 1022.69 66.5218C1022.28 66.5218 1021.91 66.6182 1021.58 66.8111C1021.26 66.9932 1021 67.2557 1020.81 67.5985C1020.62 67.9307 1020.52 68.3164 1020.52 68.7556C1020.52 69.1842 1020.61 69.5645 1020.79 69.8967C1020.99 70.2288 1021.25 70.4913 1021.58 70.6841C1021.91 70.877 1022.28 70.9734 1022.69 70.9734Z" fill="white"/>
<path d="M943.273 67V60.4857H944.305V67H943.273ZM945.481 67V60.4857H947.614C948.291 60.4857 948.876 60.6227 949.372 60.8967C949.873 61.1649 950.261 61.5438 950.535 62.0334C950.809 62.5231 950.946 63.0914 950.946 63.7385C950.946 64.3797 950.809 64.9481 950.535 65.4436C950.261 65.9332 949.873 66.3151 949.372 66.589C948.876 66.863 948.291 67 947.614 67H945.481ZM946.513 66.0819H947.632C948.092 66.0819 948.492 65.9857 948.83 65.7933C949.174 65.601 949.439 65.3299 949.626 64.9801C949.812 64.6304 949.905 64.2165 949.905 63.7385C949.905 63.2605 949.809 62.8495 949.617 62.5056C949.43 62.1558 949.168 61.8848 948.83 61.6924C948.492 61.5 948.092 61.4039 947.632 61.4039H946.513V66.0819ZM951.787 67V60.4857H954.157C954.594 60.4857 954.979 60.5674 955.311 60.7306C955.643 60.888 955.903 61.1211 956.089 61.4301C956.282 61.7332 956.378 62.0976 956.378 62.5231C956.378 62.9719 956.264 63.3567 956.037 63.6773C955.815 63.9979 955.515 64.2311 955.136 64.3768L956.64 67H955.468L953.868 64.1582L954.541 64.5517H952.819V67H951.787ZM952.819 63.6336H954.174C954.413 63.6336 954.62 63.5869 954.795 63.4937C954.97 63.4004 955.104 63.2722 955.197 63.1089C955.296 62.9399 955.346 62.7417 955.346 62.5143C955.346 62.287 955.296 62.0917 955.197 61.9285C955.104 61.7595 954.97 61.6312 954.795 61.5438C954.62 61.4505 954.413 61.4039 954.174 61.4039H952.819V63.6336Z" fill="white"/>
<path d="M69.166 379.273H70.2228V385.511C70.2228 386.068 70.1205 386.541 69.916 386.93C69.7114 387.32 69.4231 387.615 69.0509 387.817C68.6787 388.018 68.2398 388.119 67.7341 388.119C67.2569 388.119 66.8322 388.033 66.46 387.859C66.0878 387.683 65.7952 387.433 65.5822 387.109C65.3691 386.786 65.2625 386.401 65.2625 385.955H66.3023C66.3023 386.202 66.3634 386.418 66.4856 386.602C66.6106 386.784 66.781 386.926 66.9969 387.028C67.2128 387.131 67.4586 387.182 67.7341 387.182C68.0381 387.182 68.2966 387.118 68.5097 386.99C68.7228 386.862 68.8847 386.675 68.9955 386.428C69.1091 386.178 69.166 385.872 69.166 385.511V379.273ZM74.1304 388.153C73.7157 388.153 73.3393 388.075 73.0012 387.919C72.6631 387.76 72.3947 387.531 72.1958 387.233C71.9969 386.932 71.8975 386.568 71.8975 386.142C71.8975 385.767 71.9714 385.463 72.1191 385.23C72.2668 384.994 72.4643 384.81 72.7114 384.676C72.9586 384.543 73.2313 384.443 73.5296 384.378C73.8307 384.31 74.1333 384.256 74.4373 384.216C74.835 384.165 75.1574 384.126 75.4046 384.101C75.6546 384.072 75.8364 384.026 75.95 383.96C76.0665 383.895 76.1248 383.781 76.1248 383.619V383.585C76.1248 383.165 76.0097 382.838 75.7796 382.605C75.5523 382.372 75.2072 382.256 74.7441 382.256C74.264 382.256 73.8875 382.361 73.6148 382.571C73.3421 382.781 73.1503 383.006 73.0395 383.244L72.085 382.903C72.2554 382.506 72.4827 382.196 72.7668 381.974C73.0537 381.75 73.3662 381.594 73.7043 381.506C74.0452 381.415 74.3804 381.369 74.71 381.369C74.9202 381.369 75.1617 381.395 75.4344 381.446C75.71 381.494 75.9756 381.595 76.2313 381.749C76.4898 381.902 76.7043 382.134 76.8748 382.443C77.0452 382.753 77.1304 383.168 77.1304 383.688V388H76.1248V387.114H76.0736C76.0054 387.256 75.8918 387.408 75.7327 387.57C75.5736 387.732 75.362 387.869 75.0978 387.983C74.8336 388.097 74.5111 388.153 74.1304 388.153ZM74.2839 387.25C74.6816 387.25 75.0168 387.172 75.2895 387.016C75.5651 386.859 75.7725 386.658 75.9117 386.411C76.0537 386.163 76.1248 385.903 76.1248 385.631V384.71C76.0822 384.761 75.9884 384.808 75.8435 384.851C75.7015 384.891 75.5367 384.926 75.3492 384.957C75.1645 384.986 74.9841 385.011 74.808 385.034C74.6347 385.054 74.4941 385.071 74.3861 385.085C74.1248 385.119 73.8804 385.175 73.6532 385.251C73.4287 385.325 73.2469 385.437 73.1077 385.588C72.9714 385.736 72.9032 385.937 72.9032 386.193C72.9032 386.543 73.0324 386.807 73.291 386.986C73.5523 387.162 73.8833 387.25 74.2839 387.25ZM79.9717 384.062V388H78.966V381.455H79.9376V382.477H80.0228C80.1763 382.145 80.4092 381.878 80.7217 381.676C81.0342 381.472 81.4376 381.369 81.9319 381.369C82.3751 381.369 82.7629 381.46 83.0953 381.642C83.4277 381.821 83.6862 382.094 83.8709 382.46C84.0555 382.824 84.1478 383.284 84.1478 383.841V388H83.1422V383.909C83.1422 383.395 83.0086 382.994 82.7416 382.707C82.4746 382.418 82.1081 382.273 81.6422 382.273C81.3211 382.273 81.0342 382.342 80.7814 382.482C80.5314 382.621 80.3339 382.824 80.189 383.091C80.0442 383.358 79.9717 383.682 79.9717 384.062Z" fill="#808080" fill-opacity="0.7"/>
<path d="M157.307 388V379.273H162.54V380.21H158.364V383.159H162.148V384.097H158.364V388H157.307ZM166.477 388.136C165.847 388.136 165.303 387.997 164.845 387.719C164.391 387.438 164.04 387.045 163.793 386.543C163.548 386.037 163.426 385.449 163.426 384.778C163.426 384.108 163.548 383.517 163.793 383.006C164.04 382.491 164.384 382.091 164.824 381.804C165.267 381.514 165.784 381.369 166.375 381.369C166.716 381.369 167.053 381.426 167.385 381.54C167.717 381.653 168.02 381.838 168.293 382.094C168.565 382.347 168.783 382.682 168.945 383.099C169.107 383.517 169.188 384.031 169.188 384.642V385.068H164.142V384.199H168.165C168.165 383.83 168.091 383.5 167.943 383.21C167.798 382.92 167.591 382.692 167.321 382.524C167.054 382.357 166.739 382.273 166.375 382.273C165.974 382.273 165.628 382.372 165.335 382.571C165.045 382.767 164.822 383.023 164.666 383.338C164.51 383.653 164.432 383.991 164.432 384.352V384.932C164.432 385.426 164.517 385.845 164.688 386.189C164.861 386.53 165.101 386.79 165.408 386.969C165.715 387.145 166.071 387.233 166.477 387.233C166.742 387.233 166.98 387.196 167.193 387.122C167.409 387.045 167.595 386.932 167.751 386.781C167.908 386.628 168.028 386.437 168.114 386.21L169.085 386.483C168.983 386.812 168.811 387.102 168.57 387.352C168.328 387.599 168.03 387.793 167.675 387.932C167.32 388.068 166.92 388.136 166.477 388.136ZM170.854 388V379.273H171.859V382.494H171.945C172.019 382.381 172.121 382.236 172.251 382.06C172.385 381.881 172.575 381.722 172.822 381.582C173.072 381.44 173.411 381.369 173.837 381.369C174.388 381.369 174.874 381.507 175.294 381.783C175.715 382.058 176.043 382.449 176.278 382.955C176.514 383.46 176.632 384.057 176.632 384.744C176.632 385.438 176.514 386.038 176.278 386.547C176.043 387.053 175.716 387.445 175.298 387.723C174.881 387.999 174.399 388.136 173.854 388.136C173.433 388.136 173.097 388.067 172.844 387.928C172.591 387.786 172.396 387.625 172.26 387.446C172.124 387.264 172.019 387.114 171.945 386.994H171.825V388H170.854ZM171.842 384.727C171.842 385.222 171.915 385.658 172.06 386.036C172.205 386.411 172.416 386.705 172.695 386.918C172.973 387.128 173.314 387.233 173.717 387.233C174.138 387.233 174.489 387.122 174.77 386.901C175.054 386.676 175.267 386.375 175.409 385.997C175.554 385.616 175.626 385.193 175.626 384.727C175.626 384.267 175.555 383.852 175.413 383.483C175.274 383.111 175.063 382.817 174.778 382.601C174.497 382.382 174.144 382.273 173.717 382.273C173.308 382.273 172.965 382.376 172.686 382.584C172.408 382.788 172.197 383.075 172.055 383.445C171.913 383.811 171.842 384.239 171.842 384.727Z" fill="#808080" fill-opacity="0.7"/>
<path d="M248.689 379.273H249.95L252.916 386.517H253.018L255.984 379.273H257.246V388H256.257V381.369H256.172L253.445 388H252.49L249.763 381.369H249.678V388H248.689V379.273ZM261.154 388.153C260.74 388.153 260.363 388.075 260.025 387.919C259.687 387.76 259.419 387.531 259.22 387.233C259.021 386.932 258.922 386.568 258.922 386.142C258.922 385.767 258.995 385.463 259.143 385.23C259.291 384.994 259.488 384.81 259.735 384.676C259.983 384.543 260.255 384.443 260.554 384.378C260.855 384.31 261.157 384.256 261.461 384.216C261.859 384.165 262.181 384.126 262.429 384.101C262.679 384.072 262.86 384.026 262.974 383.96C263.091 383.895 263.149 383.781 263.149 383.619V383.585C263.149 383.165 263.034 382.838 262.804 382.605C262.576 382.372 262.231 382.256 261.768 382.256C261.288 382.256 260.912 382.361 260.639 382.571C260.366 382.781 260.174 383.006 260.064 383.244L259.109 382.903C259.279 382.506 259.507 382.196 259.791 381.974C260.078 381.75 260.39 381.594 260.728 381.506C261.069 381.415 261.404 381.369 261.734 381.369C261.944 381.369 262.186 381.395 262.458 381.446C262.734 381.494 263 381.595 263.255 381.749C263.514 381.902 263.728 382.134 263.899 382.443C264.069 382.753 264.154 383.168 264.154 383.688V388H263.149V387.114H263.098C263.029 387.256 262.916 387.408 262.757 387.57C262.598 387.732 262.386 387.869 262.122 387.983C261.858 388.097 261.535 388.153 261.154 388.153ZM261.308 387.25C261.706 387.25 262.041 387.172 262.314 387.016C262.589 386.859 262.797 386.658 262.936 386.411C263.078 386.163 263.149 385.903 263.149 385.631V384.71C263.106 384.761 263.012 384.808 262.868 384.851C262.726 384.891 262.561 384.926 262.373 384.957C262.189 384.986 262.008 385.011 261.832 385.034C261.659 385.054 261.518 385.071 261.41 385.085C261.149 385.119 260.904 385.175 260.677 385.251C260.453 385.325 260.271 385.437 260.132 385.588C259.995 385.736 259.927 385.937 259.927 386.193C259.927 386.543 260.056 386.807 260.315 386.986C260.576 387.162 260.907 387.25 261.308 387.25ZM265.99 388V381.455H266.962V382.443H267.03C267.149 382.119 267.365 381.857 267.678 381.655C267.99 381.453 268.342 381.352 268.734 381.352C268.808 381.352 268.901 381.354 269.011 381.357C269.122 381.359 269.206 381.364 269.263 381.369V382.392C269.229 382.384 269.151 382.371 269.028 382.354C268.909 382.334 268.783 382.324 268.649 382.324C268.331 382.324 268.047 382.391 267.797 382.524C267.55 382.655 267.354 382.837 267.209 383.07C267.067 383.3 266.996 383.562 266.996 383.858V388H265.99Z" fill="#808080" fill-opacity="0.7"/>
<path d="M341.888 388H340.78L343.985 379.273H345.076L348.28 388H347.172L344.564 380.653H344.496L341.888 388ZM342.297 384.591H346.763V385.528H342.297V384.591ZM349.503 390.455V381.455H350.475V382.494H350.594C350.668 382.381 350.77 382.236 350.901 382.06C351.034 381.881 351.225 381.722 351.472 381.582C351.722 381.44 352.06 381.369 352.486 381.369C353.037 381.369 353.523 381.507 353.943 381.783C354.364 382.058 354.692 382.449 354.928 382.955C355.164 383.46 355.282 384.057 355.282 384.744C355.282 385.438 355.164 386.038 354.928 386.547C354.692 387.053 354.365 387.445 353.948 387.723C353.53 387.999 353.049 388.136 352.503 388.136C352.083 388.136 351.746 388.067 351.493 387.928C351.24 387.786 351.046 387.625 350.909 387.446C350.773 387.264 350.668 387.114 350.594 386.994H350.509V390.455H349.503ZM350.492 384.727C350.492 385.222 350.564 385.658 350.709 386.036C350.854 386.411 351.066 386.705 351.344 386.918C351.622 387.128 351.963 387.233 352.367 387.233C352.787 387.233 353.138 387.122 353.419 386.901C353.703 386.676 353.916 386.375 354.059 385.997C354.203 385.616 354.276 385.193 354.276 384.727C354.276 384.267 354.205 383.852 354.063 383.483C353.924 383.111 353.712 382.817 353.428 382.601C353.147 382.382 352.793 382.273 352.367 382.273C351.958 382.273 351.614 382.376 351.336 382.584C351.057 382.788 350.847 383.075 350.705 383.445C350.563 383.811 350.492 384.239 350.492 384.727ZM356.816 388V381.455H357.787V382.443H357.855C357.975 382.119 358.191 381.857 358.503 381.655C358.816 381.453 359.168 381.352 359.56 381.352C359.634 381.352 359.726 381.354 359.837 381.357C359.948 381.359 360.032 381.364 360.088 381.369V382.392C360.054 382.384 359.976 382.371 359.854 382.354C359.735 382.334 359.608 382.324 359.475 382.324C359.157 382.324 358.872 382.391 358.622 382.524C358.375 382.655 358.179 382.837 358.034 383.07C357.892 383.3 357.821 383.562 357.821 383.858V388H356.816Z" fill="#808080" fill-opacity="0.7"/>
<path d="M431.365 379.273H432.627L435.593 386.517H435.695L438.661 379.273H439.922V388H438.934V381.369H438.848L436.121 388H435.166L432.439 381.369H432.354V388H431.365V379.273ZM443.831 388.153C443.416 388.153 443.04 388.075 442.702 387.919C442.364 387.76 442.095 387.531 441.896 387.233C441.697 386.932 441.598 386.568 441.598 386.142C441.598 385.767 441.672 385.463 441.82 385.23C441.967 384.994 442.165 384.81 442.412 384.676C442.659 384.543 442.932 384.443 443.23 384.378C443.531 384.31 443.834 384.256 444.138 384.216C444.535 384.165 444.858 384.126 445.105 384.101C445.355 384.072 445.537 384.026 445.65 383.96C445.767 383.895 445.825 383.781 445.825 383.619V383.585C445.825 383.165 445.71 382.838 445.48 382.605C445.253 382.372 444.908 382.256 444.445 382.256C443.964 382.256 443.588 382.361 443.315 382.571C443.043 382.781 442.851 383.006 442.74 383.244L441.785 382.903C441.956 382.506 442.183 382.196 442.467 381.974C442.754 381.75 443.067 381.594 443.405 381.506C443.746 381.415 444.081 381.369 444.41 381.369C444.621 381.369 444.862 381.395 445.135 381.446C445.41 381.494 445.676 381.595 445.932 381.749C446.19 381.902 446.405 382.134 446.575 382.443C446.746 382.753 446.831 383.168 446.831 383.688V388H445.825V387.114H445.774C445.706 387.256 445.592 387.408 445.433 387.57C445.274 387.732 445.062 387.869 444.798 387.983C444.534 388.097 444.212 388.153 443.831 388.153ZM443.984 387.25C444.382 387.25 444.717 387.172 444.99 387.016C445.266 386.859 445.473 386.658 445.612 386.411C445.754 386.163 445.825 385.903 445.825 385.631V384.71C445.783 384.761 445.689 384.808 445.544 384.851C445.402 384.891 445.237 384.926 445.05 384.957C444.865 384.986 444.685 385.011 444.508 385.034C444.335 385.054 444.195 385.071 444.087 385.085C443.825 385.119 443.581 385.175 443.354 385.251C443.129 385.325 442.947 385.437 442.808 385.588C442.672 385.736 442.604 385.937 442.604 386.193C442.604 386.543 442.733 386.807 442.991 386.986C443.253 387.162 443.584 387.25 443.984 387.25ZM449.08 390.455C448.909 390.455 448.757 390.44 448.624 390.412C448.49 390.386 448.398 390.361 448.347 390.335L448.603 389.449C448.847 389.511 449.063 389.534 449.25 389.517C449.438 389.5 449.604 389.416 449.749 389.266C449.897 389.118 450.032 388.878 450.154 388.545L450.341 388.034L447.921 381.455H449.012L450.818 386.67H450.887L452.693 381.455H453.784L451.006 388.955C450.881 389.293 450.726 389.572 450.541 389.794C450.357 390.018 450.142 390.185 449.898 390.293C449.657 390.401 449.384 390.455 449.08 390.455Z" fill="#808080" fill-opacity="0.7"/>
<path d="M528.227 379.273H529.284V385.511C529.284 386.068 529.182 386.541 528.977 386.93C528.773 387.32 528.484 387.615 528.112 387.817C527.74 388.018 527.301 388.119 526.795 388.119C526.318 388.119 525.893 388.033 525.521 387.859C525.149 387.683 524.856 387.433 524.643 387.109C524.43 386.786 524.324 386.401 524.324 385.955H525.364C525.364 386.202 525.425 386.418 525.547 386.602C525.672 386.784 525.842 386.926 526.058 387.028C526.274 387.131 526.52 387.182 526.795 387.182C527.099 387.182 527.358 387.118 527.571 386.99C527.784 386.862 527.946 386.675 528.057 386.428C528.17 386.178 528.227 385.872 528.227 385.511V379.273ZM535.391 385.324V381.455H536.396V388H535.391V386.892H535.322C535.169 387.224 534.93 387.507 534.606 387.74C534.283 387.97 533.874 388.085 533.379 388.085C532.97 388.085 532.606 387.996 532.288 387.817C531.97 387.635 531.72 387.362 531.538 386.999C531.356 386.632 531.266 386.17 531.266 385.614V381.455H532.271V385.545C532.271 386.023 532.405 386.403 532.672 386.688C532.942 386.972 533.285 387.114 533.703 387.114C533.953 387.114 534.207 387.05 534.466 386.922C534.727 386.794 534.946 386.598 535.122 386.334C535.301 386.07 535.391 385.733 535.391 385.324ZM539.244 384.062V388H538.238V381.455H539.21V382.477H539.295C539.448 382.145 539.681 381.878 539.994 381.676C540.306 381.472 540.71 381.369 541.204 381.369C541.647 381.369 542.035 381.46 542.368 381.642C542.7 381.821 542.958 382.094 543.143 382.46C543.328 382.824 543.42 383.284 543.42 383.841V388H542.414V383.909C542.414 383.395 542.281 382.994 542.014 382.707C541.747 382.418 541.38 382.273 540.914 382.273C540.593 382.273 540.306 382.342 540.054 382.482C539.804 382.621 539.606 382.824 539.461 383.091C539.316 383.358 539.244 383.682 539.244 384.062Z" fill="#808080" fill-opacity="0.7"/>
<path d="M622.146 379.273H623.203V385.511C623.203 386.068 623.101 386.541 622.896 386.93C622.692 387.32 622.404 387.615 622.031 387.817C621.659 388.018 621.22 388.119 620.715 388.119C620.237 388.119 619.813 388.033 619.44 387.859C619.068 387.683 618.776 387.433 618.563 387.109C618.35 386.786 618.243 386.401 618.243 385.955H619.283C619.283 386.202 619.344 386.418 619.466 386.602C619.591 386.784 619.761 386.926 619.977 387.028C620.193 387.131 620.439 387.182 620.715 387.182C621.019 387.182 621.277 387.118 621.49 386.99C621.703 386.862 621.865 386.675 621.976 386.428C622.09 386.178 622.146 385.872 622.146 385.511V379.273ZM629.31 385.324V381.455H630.315V388H629.31V386.892H629.242C629.088 387.224 628.85 387.507 628.526 387.74C628.202 387.97 627.793 388.085 627.298 388.085C626.889 388.085 626.526 387.996 626.208 387.817C625.889 387.635 625.639 387.362 625.458 386.999C625.276 386.632 625.185 386.17 625.185 385.614V381.455H626.19V385.545C626.19 386.023 626.324 386.403 626.591 386.688C626.861 386.972 627.205 387.114 627.622 387.114C627.872 387.114 628.127 387.05 628.385 386.922C628.646 386.794 628.865 386.598 629.041 386.334C629.22 386.07 629.31 385.733 629.31 385.324ZM633.163 379.273V388H632.157V379.273H633.163Z" fill="#808080" fill-opacity="0.7"/>
<path d="M707.968 388H706.86L710.064 379.273H711.155L714.36 388H713.252L710.644 380.653H710.576L707.968 388ZM708.377 384.591H712.843V385.528H708.377V384.591ZM719.708 385.324V381.455H720.713V388H719.708V386.892H719.64C719.486 387.224 719.248 387.507 718.924 387.74C718.6 387.97 718.191 388.085 717.696 388.085C717.287 388.085 716.924 387.996 716.605 387.817C716.287 387.635 716.037 387.362 715.855 386.999C715.674 386.632 715.583 386.17 715.583 385.614V381.455H716.588V385.545C716.588 386.023 716.722 386.403 716.989 386.688C717.259 386.972 717.603 387.114 718.02 387.114C718.27 387.114 718.524 387.05 718.783 386.922C719.044 386.794 719.263 386.598 719.439 386.334C719.618 386.07 719.708 385.733 719.708 385.324ZM725.197 390.591C724.712 390.591 724.294 390.528 723.945 390.403C723.595 390.281 723.304 390.119 723.071 389.918C722.841 389.719 722.658 389.506 722.521 389.278L723.322 388.716C723.413 388.835 723.528 388.972 723.668 389.125C723.807 389.281 723.997 389.416 724.239 389.53C724.483 389.646 724.803 389.705 725.197 389.705C725.726 389.705 726.162 389.577 726.506 389.321C726.849 389.065 727.021 388.665 727.021 388.119V386.79H726.936C726.862 386.909 726.757 387.057 726.621 387.233C726.487 387.406 726.294 387.561 726.041 387.697C725.791 387.831 725.453 387.898 725.027 387.898C724.499 387.898 724.024 387.773 723.604 387.523C723.186 387.273 722.855 386.909 722.611 386.432C722.369 385.955 722.249 385.375 722.249 384.693C722.249 384.023 722.366 383.439 722.602 382.942C722.838 382.442 723.166 382.055 723.587 381.783C724.007 381.507 724.493 381.369 725.044 381.369C725.47 381.369 725.808 381.44 726.058 381.582C726.311 381.722 726.504 381.881 726.638 382.06C726.774 382.236 726.879 382.381 726.953 382.494H727.055V381.455H728.027V388.188C728.027 388.75 727.899 389.207 727.643 389.56C727.391 389.915 727.05 390.175 726.621 390.339C726.195 390.507 725.72 390.591 725.197 390.591ZM725.163 386.994C725.567 386.994 725.908 386.902 726.186 386.717C726.464 386.533 726.676 386.267 726.821 385.92C726.966 385.574 727.038 385.159 727.038 384.676C727.038 384.205 726.967 383.788 726.825 383.428C726.683 383.067 726.473 382.784 726.195 382.58C725.916 382.375 725.572 382.273 725.163 382.273C724.737 382.273 724.382 382.381 724.098 382.597C723.817 382.812 723.605 383.102 723.463 383.466C723.324 383.83 723.254 384.233 723.254 384.676C723.254 385.131 723.325 385.533 723.467 385.882C723.612 386.229 723.825 386.501 724.107 386.7C724.391 386.896 724.743 386.994 725.163 386.994Z" fill="#808080" fill-opacity="0.7"/>
<path d="M804.438 381.455C804.387 381.023 804.18 380.688 803.816 380.449C803.453 380.21 803.007 380.091 802.478 380.091C802.092 380.091 801.754 380.153 801.464 380.278C801.177 380.403 800.953 380.575 800.791 380.794C800.632 381.013 800.552 381.261 800.552 381.54C800.552 381.773 800.607 381.973 800.718 382.141C800.832 382.305 800.977 382.443 801.153 382.554C801.329 382.662 801.514 382.751 801.707 382.822C801.9 382.891 802.078 382.946 802.239 382.989L803.126 383.227C803.353 383.287 803.606 383.369 803.884 383.474C804.166 383.58 804.434 383.723 804.69 383.905C804.948 384.084 805.161 384.314 805.329 384.595C805.497 384.876 805.58 385.222 805.58 385.631C805.58 386.102 805.457 386.528 805.21 386.909C804.965 387.29 804.607 387.592 804.136 387.817C803.667 388.041 803.097 388.153 802.427 388.153C801.802 388.153 801.261 388.053 800.803 387.851C800.349 387.649 799.991 387.368 799.73 387.007C799.471 386.646 799.325 386.227 799.291 385.75H800.382C800.41 386.08 800.521 386.352 800.714 386.568C800.91 386.781 801.157 386.94 801.455 387.045C801.757 387.148 802.08 387.199 802.427 387.199C802.83 387.199 803.193 387.134 803.514 387.003C803.835 386.869 804.089 386.685 804.276 386.449C804.464 386.21 804.558 385.932 804.558 385.614C804.558 385.324 804.477 385.088 804.315 384.906C804.153 384.724 803.94 384.577 803.676 384.463C803.411 384.349 803.126 384.25 802.819 384.165L801.745 383.858C801.063 383.662 800.524 383.382 800.126 383.018C799.728 382.655 799.529 382.179 799.529 381.591C799.529 381.102 799.661 380.676 799.926 380.312C800.193 379.946 800.551 379.662 800.999 379.46C801.451 379.256 801.955 379.153 802.512 379.153C803.075 379.153 803.575 379.254 804.012 379.456C804.45 379.655 804.796 379.928 805.052 380.274C805.311 380.621 805.447 381.014 805.461 381.455H804.438ZM809.926 388.136C809.295 388.136 808.751 387.997 808.294 387.719C807.839 387.438 807.488 387.045 807.241 386.543C806.997 386.037 806.875 385.449 806.875 384.778C806.875 384.108 806.997 383.517 807.241 383.006C807.488 382.491 807.832 382.091 808.273 381.804C808.716 381.514 809.233 381.369 809.824 381.369C810.165 381.369 810.501 381.426 810.834 381.54C811.166 381.653 811.469 381.838 811.741 382.094C812.014 382.347 812.231 382.682 812.393 383.099C812.555 383.517 812.636 384.031 812.636 384.642V385.068H807.591V384.199H811.613C811.613 383.83 811.54 383.5 811.392 383.21C811.247 382.92 811.04 382.692 810.77 382.524C810.503 382.357 810.187 382.273 809.824 382.273C809.423 382.273 809.076 382.372 808.784 382.571C808.494 382.767 808.271 383.023 808.115 383.338C807.959 383.653 807.88 383.991 807.88 384.352V384.932C807.88 385.426 807.966 385.845 808.136 386.189C808.309 386.53 808.55 386.79 808.856 386.969C809.163 387.145 809.52 387.233 809.926 387.233C810.19 387.233 810.429 387.196 810.642 387.122C810.858 387.045 811.044 386.932 811.2 386.781C811.356 386.628 811.477 386.437 811.562 386.21L812.534 386.483C812.432 386.812 812.26 387.102 812.018 387.352C811.777 387.599 811.478 387.793 811.123 387.932C810.768 388.068 810.369 388.136 809.926 388.136ZM814.166 390.455V381.455H815.138V382.494H815.257C815.331 382.381 815.433 382.236 815.564 382.06C815.697 381.881 815.888 381.722 816.135 381.582C816.385 381.44 816.723 381.369 817.149 381.369C817.7 381.369 818.186 381.507 818.606 381.783C819.027 382.058 819.355 382.449 819.591 382.955C819.826 383.46 819.944 384.057 819.944 384.744C819.944 385.438 819.826 386.038 819.591 386.547C819.355 387.053 819.028 387.445 818.611 387.723C818.193 387.999 817.711 388.136 817.166 388.136C816.746 388.136 816.409 388.067 816.156 387.928C815.903 387.786 815.709 387.625 815.572 387.446C815.436 387.264 815.331 387.114 815.257 386.994H815.172V390.455H814.166ZM815.155 384.727C815.155 385.222 815.227 385.658 815.372 386.036C815.517 386.411 815.728 386.705 816.007 386.918C816.285 387.128 816.626 387.233 817.03 387.233C817.45 387.233 817.801 387.122 818.082 386.901C818.366 386.676 818.579 386.375 818.721 385.997C818.866 385.616 818.939 385.193 818.939 384.727C818.939 384.267 818.868 383.852 818.726 383.483C818.586 383.111 818.375 382.817 818.091 382.601C817.809 382.382 817.456 382.273 817.03 382.273C816.621 382.273 816.277 382.376 815.998 382.584C815.72 382.788 815.51 383.075 815.368 383.445C815.226 383.811 815.155 384.239 815.155 384.727Z" fill="#808080" fill-opacity="0.7"/>
<path d="M899.736 383.636C899.736 384.557 899.569 385.352 899.237 386.023C898.905 386.693 898.449 387.21 897.869 387.574C897.29 387.938 896.628 388.119 895.883 388.119C895.139 388.119 894.477 387.938 893.897 387.574C893.318 387.21 892.862 386.693 892.53 386.023C892.197 385.352 892.031 384.557 892.031 383.636C892.031 382.716 892.197 381.92 892.53 381.25C892.862 380.58 893.318 380.062 893.897 379.699C894.477 379.335 895.139 379.153 895.883 379.153C896.628 379.153 897.29 379.335 897.869 379.699C898.449 380.062 898.905 380.58 899.237 381.25C899.569 381.92 899.736 382.716 899.736 383.636ZM898.713 383.636C898.713 382.881 898.586 382.243 898.334 381.723C898.084 381.203 897.744 380.81 897.315 380.543C896.889 380.276 896.412 380.142 895.883 380.142C895.355 380.142 894.876 380.276 894.447 380.543C894.021 380.81 893.682 381.203 893.429 381.723C893.179 382.243 893.054 382.881 893.054 383.636C893.054 384.392 893.179 385.03 893.429 385.55C893.682 386.07 894.021 386.463 894.447 386.73C894.876 386.997 895.355 387.131 895.883 387.131C896.412 387.131 896.889 386.997 897.315 386.73C897.744 386.463 898.084 386.07 898.334 385.55C898.586 385.03 898.713 384.392 898.713 383.636ZM904.035 388.136C903.422 388.136 902.893 387.991 902.45 387.702C902.007 387.412 901.666 387.013 901.427 386.504C901.189 385.996 901.069 385.415 901.069 384.761C901.069 384.097 901.192 383.51 901.436 383.001C901.683 382.49 902.027 382.091 902.467 381.804C902.91 381.514 903.427 381.369 904.018 381.369C904.478 381.369 904.893 381.455 905.263 381.625C905.632 381.795 905.934 382.034 906.17 382.341C906.406 382.648 906.552 383.006 906.609 383.415H905.603C905.527 383.116 905.356 382.852 905.092 382.622C904.831 382.389 904.478 382.273 904.035 382.273C903.643 382.273 903.299 382.375 903.004 382.58C902.711 382.781 902.483 383.067 902.318 383.436C902.156 383.803 902.075 384.233 902.075 384.727C902.075 385.233 902.155 385.673 902.314 386.048C902.476 386.423 902.703 386.714 902.996 386.922C903.291 387.129 903.638 387.233 904.035 387.233C904.297 387.233 904.534 387.188 904.747 387.097C904.96 387.006 905.14 386.875 905.288 386.705C905.436 386.534 905.541 386.33 905.603 386.091H906.609C906.552 386.477 906.412 386.825 906.187 387.135C905.966 387.442 905.672 387.686 905.305 387.868C904.942 388.047 904.518 388.136 904.035 388.136ZM910.926 381.455V382.307H907.534V381.455H910.926ZM908.522 379.886H909.528V386.125C909.528 386.409 909.569 386.622 909.652 386.764C909.737 386.903 909.845 386.997 909.976 387.045C910.109 387.091 910.25 387.114 910.397 387.114C910.508 387.114 910.599 387.108 910.67 387.097C910.741 387.082 910.798 387.071 910.841 387.062L911.045 387.966C910.977 387.991 910.882 388.017 910.76 388.043C910.638 388.071 910.483 388.085 910.295 388.085C910.011 388.085 909.733 388.024 909.46 387.902C909.19 387.78 908.966 387.594 908.787 387.344C908.611 387.094 908.522 386.778 908.522 386.398V379.886Z" fill="#808080" fill-opacity="0.7"/>
<path d="M989.907 379.273V388H988.884L984.129 381.148H984.043V388H982.987V379.273H984.009L988.782 386.142H988.867V379.273H989.907ZM994.545 388.136C993.954 388.136 993.435 387.996 992.989 387.714C992.546 387.433 992.199 387.04 991.949 386.534C991.702 386.028 991.579 385.437 991.579 384.761C991.579 384.08 991.702 383.484 991.949 382.976C992.199 382.467 992.546 382.072 992.989 381.791C993.435 381.51 993.954 381.369 994.545 381.369C995.135 381.369 995.653 381.51 996.096 381.791C996.542 382.072 996.888 382.467 997.135 382.976C997.385 383.484 997.51 384.08 997.51 384.761C997.51 385.437 997.385 386.028 997.135 386.534C996.888 387.04 996.542 387.433 996.096 387.714C995.653 387.996 995.135 388.136 994.545 388.136ZM994.545 387.233C994.993 387.233 995.363 387.118 995.653 386.888C995.942 386.658 996.157 386.355 996.296 385.98C996.435 385.605 996.505 385.199 996.505 384.761C996.505 384.324 996.435 383.916 996.296 383.538C996.157 383.161 995.942 382.855 995.653 382.622C995.363 382.389 994.993 382.273 994.545 382.273C994.096 382.273 993.726 382.389 993.437 382.622C993.147 382.855 992.932 383.161 992.793 383.538C992.654 383.916 992.584 384.324 992.584 384.761C992.584 385.199 992.654 385.605 992.793 385.98C992.932 386.355 993.147 386.658 993.437 386.888C993.726 387.118 994.096 387.233 994.545 387.233ZM1004.16 381.455L1001.74 388H1000.72L998.3 381.455H999.391L1001.2 386.67H1001.27L1003.07 381.455H1004.16Z" fill="#808080" fill-opacity="0.7"/>
<path d="M1077.68 388H1074.98V379.273H1077.8C1078.64 379.273 1079.37 379.447 1079.97 379.797C1080.57 380.143 1081.03 380.642 1081.35 381.293C1081.68 381.94 1081.84 382.716 1081.84 383.619C1081.84 384.528 1081.67 385.311 1081.35 385.967C1081.03 386.621 1080.56 387.124 1079.94 387.476C1079.32 387.825 1078.56 388 1077.68 388ZM1076.04 387.062H1077.61C1078.33 387.062 1078.93 386.923 1079.4 386.645C1079.88 386.366 1080.23 385.97 1080.46 385.456C1080.7 384.942 1080.81 384.33 1080.81 383.619C1080.81 382.915 1080.7 382.308 1080.47 381.8C1080.24 381.288 1079.89 380.896 1079.44 380.624C1078.98 380.348 1078.41 380.21 1077.73 380.21H1076.04V387.062ZM1086.22 388.136C1085.59 388.136 1085.04 387.997 1084.59 387.719C1084.13 387.438 1083.78 387.045 1083.53 386.543C1083.29 386.037 1083.17 385.449 1083.17 384.778C1083.17 384.108 1083.29 383.517 1083.53 383.006C1083.78 382.491 1084.12 382.091 1084.56 381.804C1085.01 381.514 1085.52 381.369 1086.11 381.369C1086.46 381.369 1086.79 381.426 1087.12 381.54C1087.46 381.653 1087.76 381.838 1088.03 382.094C1088.31 382.347 1088.52 382.682 1088.68 383.099C1088.85 383.517 1088.93 384.031 1088.93 384.642V385.068H1083.88V384.199H1087.9C1087.9 383.83 1087.83 383.5 1087.68 383.21C1087.54 382.92 1087.33 382.692 1087.06 382.524C1086.79 382.357 1086.48 382.273 1086.11 382.273C1085.71 382.273 1085.37 382.372 1085.08 382.571C1084.79 382.767 1084.56 383.023 1084.41 383.338C1084.25 383.653 1084.17 383.991 1084.17 384.352V384.932C1084.17 385.426 1084.26 385.845 1084.43 386.189C1084.6 386.53 1084.84 386.79 1085.15 386.969C1085.45 387.145 1085.81 387.233 1086.22 387.233C1086.48 387.233 1086.72 387.196 1086.93 387.122C1087.15 387.045 1087.34 386.932 1087.49 386.781C1087.65 386.628 1087.77 386.437 1087.85 386.21L1088.83 386.483C1088.72 386.812 1088.55 387.102 1088.31 387.352C1088.07 387.599 1087.77 387.793 1087.41 387.932C1087.06 388.068 1086.66 388.136 1086.22 388.136ZM1093.12 388.136C1092.5 388.136 1091.97 387.991 1091.53 387.702C1091.09 387.412 1090.75 387.013 1090.51 386.504C1090.27 385.996 1090.15 385.415 1090.15 384.761C1090.15 384.097 1090.27 383.51 1090.52 383.001C1090.76 382.49 1091.11 382.091 1091.55 381.804C1091.99 381.514 1092.51 381.369 1093.1 381.369C1093.56 381.369 1093.97 381.455 1094.34 381.625C1094.71 381.795 1095.02 382.034 1095.25 382.341C1095.49 382.648 1095.63 383.006 1095.69 383.415H1094.68C1094.61 383.116 1094.44 382.852 1094.17 382.622C1093.91 382.389 1093.56 382.273 1093.12 382.273C1092.72 382.273 1092.38 382.375 1092.09 382.58C1091.79 382.781 1091.56 383.067 1091.4 383.436C1091.24 383.803 1091.16 384.233 1091.16 384.727C1091.16 385.233 1091.24 385.673 1091.39 386.048C1091.56 386.423 1091.78 386.714 1092.08 386.922C1092.37 387.129 1092.72 387.233 1093.12 387.233C1093.38 387.233 1093.61 387.188 1093.83 387.097C1094.04 387.006 1094.22 386.875 1094.37 386.705C1094.52 386.534 1094.62 386.33 1094.68 386.091H1095.69C1095.63 386.477 1095.49 386.825 1095.27 387.135C1095.05 387.442 1094.75 387.686 1094.39 387.868C1094.02 388.047 1093.6 388.136 1093.12 388.136Z" fill="#808080" fill-opacity="0.7"/>
<defs>
<filter id="filter0_ddd_241_814" x="55" y="100" width="956" height="237" filterUnits="userSpaceOnUse" color-interpolation-filters="sRGB">
<feFlood flood-opacity="0" result="BackgroundImageFix"/>
<feColorMatrix in="SourceAlpha" type="matrix" values="0 0 0 0 0 0 0 0 0 0 0 0 0 0 0 0 0 0 127 0" result="hardAlpha"/>
<feOffset dy="3"/>
<feGaussianBlur stdDeviation="1.5"/>
<feColorMatrix type="matrix" values="0 0 0 0 0.870588 0 0 0 0 0.278431 0 0 0 0 0.435294 0 0 0 0.4 0"/>
<feBlend mode="normal" in2="BackgroundImageFix" result="effect1_dropShadow_241_814"/>
<feColorMatrix in="SourceAlpha" type="matrix" values="0 0 0 0 0 0 0 0 0 0 0 0 0 0 0 0 0 0 127 0" result="hardAlpha"/>
<feOffset dy="6"/>
<feGaussianBlur stdDeviation="4.5"/>
<feColorMatrix type="matrix" values="0 0 0 0 0.870588 0 0 0 0 0.278431 0 0 0 0 0.435294 0 0 0 0.4 0"/>
<feBlend mode="normal" in2="effect1_dropShadow_241_814" result="effect2_dropShadow_241_814"/>
<feColorMatrix in="SourceAlpha" type="matrix" values="0 0 0 0 0 0 0 0 0 0 0 0 0 0 0 0 0 0 127 0" result="hardAlpha"/>
<feOffset dy="9"/>
<feGaussianBlur stdDeviation="9"/>
<feColorMatrix type="matrix" values="0 0 0 0 0.870588 0 0 0 0 0.278431 0 0 0 0 0.435294 0 0 0 0.4 0"/>
<feBlend mode="normal" in2="effect2_dropShadow_241_814" result="effect3_dropShadow_241_814"/>
<feBlend mode="normal" in="SourceGraphic" in2="effect3_dropShadow_241_814" result="shape"/>
</filter>
<linearGradient id="paint0_linear_241_814" x1="533" y1="152.661" x2="533" y2="371" gradientUnits="userSpaceOnUse">
<stop stop-color="#DE476F" stop-opacity="0.3"/>
<stop offset="1" stop-color="#DE476F" stop-opacity="0.05"/>
</linearGradient>
</defs>
</svg>
